<svg xmlns="http://www.w3.org/2000/svg" viewBox="0 0 1417.83 368.5"><defs><style>.cls-1{fill:#006d84;}.cls-2{fill:#1d1d1b;}.cls-3{fill:#ffde14;}.cls-4{fill:#86b15a;}</style></defs><g id="Calque_2" data-name="Calque 2"><g id="Calque_1-2" data-name="Calque 1"><rect class="cls-1" width="1417.83" height="368.5"></rect><path class="cls-2" d="M364.63,102H447.8c15,0,25.54,4.23,31.72,12.53s7.77,18.67,5,31A54.12,54.12,0,0,1,469.94,172a50.7,50.7,0,0,1-19.22,11.67c10.36,3,17.27,8.23,20.84,15.6S475.51,215.9,473,227a66.71,66.71,0,0,1-11.06,24.48,62.32,62.32,0,0,1-18.89,17.17q-6.74,3.91-19,5.7c-10.79,1.6-17.93,2.41-21.37,2.41H322.17Zm27.11,68.51H412.4c7.36,0,12.87-1.4,16.38-4.32s6-7.12,7.16-12.63c1.12-5,.54-9.08-1.82-12s-7-4.32-14.2-4.32H398.81Zm-14.57,68.67h24c8.09,0,14.17-1.65,18.22-4.9a23.22,23.22,0,0,0,7.9-13.35q1.67-7.75-2.2-12.5c-2.64-3.1-8.08-4.72-16.37-4.72h-24Z"></path><polygon class="cls-2" points="516.66 101.99 579.82 101.99 576.13 208.42 628.4 101.99 691.39 101.99 642.86 276.78 604.7 276.78 640.86 143.6 575.21 276.78 540.74 276.78 545.33 143.6 511.31 276.78 473.21 276.78 516.66 101.99"></polygon><path class="cls-2" d="M673.34,219.14l45.45-3.21c-.73,8.31,0,14.61,2.08,18.94,3.37,7.13,9.64,10.61,18.53,10.61,6.69,0,12.23-1.77,16.59-5.4s7-7.83,8-12.63a14.47,14.47,0,0,0-2.56-12.18c-2.76-3.54-10.08-7-22.07-10.15q-29.34-8-40-21.25t-6.82-33.76a60.59,60.59,0,0,1,11.84-25.49A63.73,63.73,0,0,1,729,105.82C739.15,101.3,752.37,99,768.55,99q29.67,0,42.68,12.45c8.57,8.32,11.87,21.58,10,39.68l-45.55,3c.48-8-.82-13.66-3.85-17.29s-8-5.43-14.68-5.43c-5.55,0-10.07,1.31-13.31,4a16.37,16.37,0,0,0-6.26,9.77,8.92,8.92,0,0,0,2,7.56q2.67,3.45,14.65,6.44c19.75,5.07,33.45,10.25,41.31,15.45S808.4,186.28,810.88,194s2.52,16.35.48,25.88a76,76,0,0,1-14.78,31,71.89,71.89,0,0,1-27.14,21.52c-10.58,4.88-23.15,7.37-37.78,7.37-25.67,0-42.27-5.68-49.91-17.16s-10.51-25.9-8.41-43.53Z"></path><path class="cls-2" d="M827.32,107.37A16.19,16.19,0,0,1,831.8,96a14.59,14.59,0,0,1,10.88-4.74A14.24,14.24,0,0,1,853.41,96a16.72,16.72,0,0,1,0,22.78,14.31,14.31,0,0,1-10.73,4.74,14.66,14.66,0,0,1-10.88-4.74,16.24,16.24,0,0,1-4.48-11.44Zm28.07,0a13.62,13.62,0,0,0-3.73-9.47,12.06,12.06,0,0,0-9-3.93,11.89,11.89,0,0,0-8.95,3.93,13.76,13.76,0,0,0,0,19,11.72,11.72,0,0,0,8.95,4,11.89,11.89,0,0,0,9-4,13.55,13.55,0,0,0,3.73-9.52ZM836,116.32V99h7a6,6,0,0,1,4.2,1.35,4.24,4.24,0,0,1,1.56,3.35,4.79,4.79,0,0,1-1.3,3.27,5,5,0,0,1-3.41,1.59v.06c1,.23,2.25,1.67,3.77,4.31l2,3.39h-3.21l-1.45-2.72a19,19,0,0,0-2.39-3.62,3.06,3.06,0,0,0-2.58-1h-1.56v7.38Zm2.61-9.76h4c2.07,0,3.22-.91,3.22-2.6s-1.08-2.59-3.18-2.59h-4.06Z"></path><path class="cls-2" d="M297.18,276.57l20.19-79.33H272.86l-14.6,59.36H179.08l10.54-48.19,74.22.48,3.2-11.65H149.24l-19.56,79.54h167Z"></path><polygon class="cls-2" points="297.54 102.1 295.99 102.1 174.45 102.1 153.04 182.57 270.71 182.57 273.07 172.87 201.45 172.76 213.97 122.25 291 122.25 276.12 182.57 320.57 182.57 340.49 102.1 297.54 102.1"></polygon><path class="cls-2" d="M923.6,228H887.36l6.27-25.4H935l2.54-10.14H873.76l-10,40.47h58.94Zm24.72,4.93,10-40.47H936l-10,40.47Zm122.32,35.24q-14.19,0-18.29-7.84c-2.58-4.83-2.71-12.56-.38-23.12H973.36L965.94,267H939.88l7.39-29.83H924.92L917.55,267H877.71L883,242.77l37.88.25,1-5.82H862.7l-9.84,39.94H1027.5L1030,267H988.33l5.61-24.82h32.93c-1,8.28.63,18,6.46,24.89q9.47,11.11,31.89,11.1a83.19,83.19,0,0,0,27.74-4.74L1095.8,262c-10.32,4.06-18.73,6.16-25.16,6.16Zm163.91-8.73c-2.83-5.24-3.92-9.12-1-20.93.15-.44.24-.84.37-1.3h-34.37l-2,8.09a26.71,26.71,0,0,0-6.82-8.09h-52.68l-9.92,39.94h22.37l9.4-37.95c5.31-.33,9.43,1,12.26,3.78s5.48,9.27,7.77,19.57l3.12,14.6h29l2.9-11.66c.16.2.38.46.58.73q9.39,11.15,31.88,11.11a83.66,83.66,0,0,0,27.71-4.74l2.86-11.45c-10.35,4-18.72,6.08-25.18,6.08-9.4,0-15.52-2.59-18.26-7.78Zm33.66-64.35q-22.74,0-37.93,11.59c-.38.32-.7.62-1,.94l3.73-15.16h-22.4l-3.37,13.64a17.41,17.41,0,0,0-6.85-7.21c-6.79-4.31-17.61-6.43-32.55-6.43h-80.88c-15.22,0-27.58,2.83-37.71,10.57a54.67,54.67,0,0,0-18,25H997.94l6.25-25.4h39.6l2.51-10.14h-62l-10,40.47H1053c3-10.9,6.85-18.82,11.88-23.73,4.87-4.69,11.34-7.23,19.3-7.66h.55c2.54.05,12.13,1.06,12.13,1.06h15l-7.54,30.33h22.36l7.48-30.33h12.43l-7.52,30.33h49.27c6.16-2.21,10.93-4.93,14.27-8.16l-2.07,8.16h34.52c2.81-9,6.42-15.74,10.84-20,5.32-5.22,12.45-7.78,21.44-7.78a44.17,44.17,0,0,1,21.11,5.33l2.74-11a66.43,66.43,0,0,0-23-4.4Zm-82.78,21.19c-2.07,8.5-9.43,12.79-22,12.79h-1l6.56-26.47c13.22.07,18.7,4.59,16.44,13.68Zm-92,60.87h22.39l9.84-39.94h-22.36Z"></path><path class="cls-3" d="M361.66,99.38h83.17c15,0,25.54,4.22,31.73,12.52s7.77,18.67,5,31A54.21,54.21,0,0,1,467,169.42c-4.87,4.92-11.28,8.83-19.21,11.67,10.35,3,17.26,8.23,20.83,15.6s4,16.6,1.44,27.71a66.7,66.7,0,0,1-11,24.48,62.55,62.55,0,0,1-18.89,17.17q-6.75,3.92-19,5.7c-10.79,1.6-17.93,2.41-21.37,2.41H319.21Zm27.11,68.5h20.67c7.36,0,12.87-1.4,16.37-4.32s5.95-7.11,7.17-12.63c1.11-5,.54-9.08-1.82-12s-7-4.32-14.21-4.32H395.84Zm-14.56,68.67h24c8.09,0,14.18-1.65,18.22-4.9a23.29,23.29,0,0,0,7.91-13.35q1.66-7.76-2.2-12.5c-2.65-3.1-8.09-4.71-16.38-4.71h-24Z"></path><polygon class="cls-3" points="513.7 99.38 576.86 99.38 573.16 205.8 625.43 99.38 688.43 99.38 639.89 274.16 601.74 274.16 637.89 140.98 572.24 274.16 537.78 274.16 542.36 140.98 508.34 274.16 470.24 274.16 513.7 99.38"></polygon><path class="cls-3" d="M670.38,216.52l45.44-3.2c-.72,8.3,0,14.6,2.08,18.93,3.38,7.13,9.65,10.61,18.53,10.61,6.69,0,12.24-1.78,16.6-5.4s7.05-7.83,8-12.63a14.46,14.46,0,0,0-2.55-12.18c-2.77-3.54-10.1-6.94-22.08-10.15q-29.32-8-40-21.24t-6.82-33.77A60.4,60.4,0,0,1,701.46,122,63.51,63.51,0,0,1,726,103.2c10.16-4.52,23.38-6.85,39.56-6.85q29.67,0,42.69,12.45c8.56,8.32,11.87,21.58,10,39.68l-45.54,3.05c.47-8-.83-13.67-3.86-17.3s-8-5.43-14.69-5.43c-5.54,0-10.06,1.31-13.3,3.95a16.31,16.31,0,0,0-6.25,9.77,8.93,8.93,0,0,0,1.94,7.56c1.79,2.3,6.66,4.45,14.66,6.45,19.74,5.06,33.44,10.24,41.31,15.44s12.93,11.7,15.41,19.43,2.52,16.35.48,25.87a76,76,0,0,1-14.78,31,71.67,71.67,0,0,1-27.13,21.52c-10.58,4.88-23.16,7.36-37.78,7.36-25.68,0-42.27-5.66-49.91-17.14s-10.52-25.91-8.41-43.54Z"></path><path class="cls-3" d="M824.35,104.75a16.2,16.2,0,0,1,4.49-11.34,14.59,14.59,0,0,1,10.87-4.73,14.22,14.22,0,0,1,10.73,4.73,16.73,16.73,0,0,1,0,22.79,14.29,14.29,0,0,1-10.73,4.73,14.67,14.67,0,0,1-10.87-4.73,16.31,16.31,0,0,1-4.49-11.45Zm28.08,0a13.64,13.64,0,0,0-3.73-9.47,12.1,12.1,0,0,0-9-3.93,11.9,11.9,0,0,0-9,3.93,13.75,13.75,0,0,0,0,19,11.76,11.76,0,0,0,9,4,12,12,0,0,0,9-4,13.59,13.59,0,0,0,3.73-9.53Zm-19.42,9V96.38h7a6.07,6.07,0,0,1,4.2,1.35,4.23,4.23,0,0,1,1.55,3.35,4.74,4.74,0,0,1-1.3,3.27,4.93,4.93,0,0,1-3.41,1.59V106c1,.23,2.25,1.67,3.77,4.31l2,3.4h-3.22L842.14,111a17.38,17.38,0,0,0-2.39-3.61,3,3,0,0,0-2.58-1.05h-1.56v7.39Zm2.6-9.76h4c2.07,0,3.22-.92,3.22-2.61s-1.09-2.59-3.18-2.59h-4.07Z"></path><path class="cls-3" d="M294.09,273.84l20.19-79.33h-44.5l-14.61,59.36H176l10.54-48.19,74.23.48L264,194.51H146.15l-19.56,79.54h167Z"></path><polygon class="cls-4" points="294.45 99.38 292.9 99.38 171.37 99.38 149.95 179.85 267.63 179.85 269.99 170.14 198.36 170.03 210.88 119.52 287.91 119.52 273.04 179.85 317.48 179.85 337.4 99.38 294.45 99.38"></polygon><path class="cls-3" d="M920.64,225.37H884.39l6.27-25.4H932l2.55-10.14H870.79l-10,40.46h58.94Zm24.72,4.92,10-40.46H933l-10,40.46Zm122.31,35.24q-14.19,0-18.28-7.82c-2.58-4.84-2.72-12.57-.39-23.13H970.39L963,264.41H936.91l7.4-29.83H922l-7.36,29.83H874.74L880,240.15l37.88.25,1.05-5.82H859.74l-9.85,39.94h174.65l2.48-10.11H985.36L991,239.59h32.93c-1,8.29.64,18,6.47,24.88,6.31,7.42,16.91,11.11,31.89,11.11a83.24,83.24,0,0,0,27.74-4.74l2.83-11.46c-10.32,4.06-18.72,6.15-25.16,6.15Zm163.91-8.72c-2.83-5.24-3.92-9.12-1-20.93.15-.44.25-.83.37-1.3H1196.6l-2,8.09a26.86,26.86,0,0,0-6.82-8.09H1135.1l-9.91,39.94h22.36l9.4-37.95c5.32-.32,9.42,1,12.27,3.78s5.47,9.27,7.76,19.57l3.12,14.6h29l2.9-11.66c.16.2.39.47.58.73q9.4,11.15,31.88,11.12a83.67,83.67,0,0,0,27.71-4.75l2.87-11.45c-10.36,4-18.73,6.08-25.2,6.08-9.39,0-15.51-2.59-18.25-7.78Zm33.67-64.35c-15.16,0-27.84,3.88-37.94,11.59a13.36,13.36,0,0,0-1,.94l3.73-15.16h-22.39l-3.38,13.64a17.41,17.41,0,0,0-6.85-7.21c-6.78-4.31-17.61-6.43-32.55-6.43H1084c-15.23,0-27.59,2.83-37.72,10.57a54.65,54.65,0,0,0-18,25H995l6.25-25.4h39.59l2.52-10.14h-62l-10,40.46h78.69c3-10.89,6.84-18.81,11.87-23.72,4.88-4.69,11.35-7.23,19.31-7.66h.54c2.55.05,12.13,1.06,12.13,1.06h15l-7.55,30.32h22.36l7.49-30.32h12.42l-7.51,30.32h49.27c6.15-2.2,10.92-4.92,14.27-8.15l-2.08,8.15h34.53c2.8-9,6.41-15.73,10.83-20,5.32-5.22,12.46-7.78,21.44-7.78a44.21,44.21,0,0,1,21.12,5.33l2.74-11a66.22,66.22,0,0,0-23-4.41Zm-82.79,21.19c-2.07,8.5-9.42,12.8-22,12.8h-1L1166,200c13.22.06,18.7,4.58,16.43,13.68Zm-92,60.87h22.39l9.84-39.94h-22.37Z"></path></g></g></svg>