<svg xmlns="http://www.w3.org/2000/svg" width="100" height="81" fill="none"><path fill="#6F6F6E" fill-rule="evenodd" d="M14.037 71.9c-.923.124-1.965.125-2.91.224-.636 2.29-4.503 3.13-7.168 2.173-1.51-.547-2.561-1.843-2.646-3.57a4.422 4.422 0 0 1-.001-.423h.001l-.001-.028.001-.034h-.002a4.753 4.753 0 0 1 .002-.422c.085-1.712 1.135-2.996 2.646-3.538 2.665-.941 6.532-.117 7.169 2.162.944.098 1.985.098 2.91.215.102-1.753.015-1.869.044-3.694-.5.01-1.702-.01-2.475 0-.347.006-.585-.088-.61.176-.028.307.146.148.347.252 1.429.28.75.827.913 2.362h-.606c-.817-2.377-2.383-3.976-5.042-4.14-3.581-.22-6.039 2.52-6.255 5.905-.02.268-.024.525-.02.785-.003.236.001.485.02.726.216 3.418 2.674 6.183 6.255 5.963 2.659-.169 4.225-1.782 5.042-4.173h.607c-.164 1.544.515 2.089-.914 2.373-.2.104-.375-.05-.347.26.025.265.263.171.61.176.773.012 1.974-.008 2.475 0-.029-1.839.058-1.954-.045-3.73Z" clip-rule="evenodd"/><path fill="#6F6F6E" d="m16.122 60.496 1.807-.013c.264-.001.418.104.464.311l.014 2.282c0 .226-.138.339-.438.33l-1.826.013c-.317-.002-.439-.12-.424-.32l-.014-2.277c.024-.205.162-.318.417-.326ZM16.002 64.31l2.07-.044c.178-.003.373.097.373.42l-.044 11.091c-.002.324-.12.478-.362.482L16 76.313c-.27.007-.364-.16-.383-.484l.046-11.111c-.01-.208.027-.394.338-.409ZM29.524 64.504c1.328.805 1.648 2.2 1.648 3.64v7.878c-.016.098-.078.138-.19.137h-2.294c-.08-.004-.122-.06-.127-.187v-7.4c0-.762-.043-1.705-.815-2.11-.783-.417-1.865-.229-2.62.15-.504.248-.95.613-1.34 1.09v8.253c-.008.141-.125.194-.315.204h-2.265c-.148-.005-.23-.085-.23-.242V64.65c-.003-.43.352-.443.582-.446l1.322.003c.274-.008.456.133.494.423 1.433-.936 4.54-1.105 6.15-.126ZM51.13 75.971c-3.522 0-5.215-1.963-5.215-5.274V64.27c-.005-.238.056-.42.33-.428h2.25c.231.006.342.155.334.43l-.045 6.736c-.01 1.716.67 2.7 2.346 2.7 1.71 0 1.907-.968 1.907-2.636 0-2.076.04-4.738.04-6.804-.01-.253.064-.425.304-.426l2.215.018c.218.02.313.156.313.43v6.427c0 3.29-1.815 5.254-4.779 5.254ZM66.734 73.063c1.263-.77 2.17.6 1.032 1.69-1.915 1.833-6.324 1.945-8.363.357-2.712-2.104-2.774-7.461-.341-9.722 2.058-1.914 6.106-2.16 8.196-.12 1.36 1.393 1.618 3.38 1.524 5.246-.016.326-.519.425-.84.425H61.58c-.238.033-.335-.11-.33-.352l.003-1.42c.002-.223.16-.426.505-.428h3.89c0-2.703-3.749-3.44-4.967-.964-.56.918-.748 3.671.214 5.001 1.236 2.117 3.952 1.445 5.838.287ZM99.173 75.018c-1.949 1.517-6.669 2.283-8.885.04-1.271-1.287-1.858-3.198-1.833-5.113.034-1.917.832-4.007 2.488-5.139 2.122-1.538 5.55-1.062 8.044.205 1.011.519.36 2.699-1.268 2.002-3.373-1.71-6.788-.694-6.777 2.685.014 4.264 3.8 5.484 6.878 3.382 1.332-.817 2.309 1.215 1.353 1.938ZM85.28 73.063c1.259-.77 2.161.6 1.023 1.69-1.914 1.833-6.325 1.945-8.363.357-2.713-2.104-2.776-7.461-.34-9.722 2.063-1.914 6.105-2.16 8.194-.12 1.36 1.393 1.625 3.38 1.53 5.246-.022.326-.524.425-.846.425h-6.362c-.237.033-.333-.11-.329-.352l.002-1.42c.002-.223.17-.426.506-.428h3.89c0-2.703-3.74-3.44-4.966-.964-.56.92-.748 3.673.214 5.002 1.236 2.116 3.95 1.444 5.846.286ZM70.65 60.339h2.753v16.109H70.65v-16.11ZM41.192 69.818c0-1.196-.26-2.091-.785-2.675a2.533 2.533 0 0 0-1.966-.875c-.805 0-1.478.295-2.017.889-.539.602-.81 1.54-.81 2.839 0 1.286.26 2.215.779 2.779.52.571 1.162.856 1.927.856.765 0 1.436-.317 2.011-.96.573-.637.861-1.587.861-2.853Zm-.107 10.452v-5.887a4.693 4.693 0 0 1-1.616 1.241 4.85 4.85 0 0 1-2.093.451c-1.427 0-2.601-.496-3.521-1.493-1.087-1.17-1.634-2.751-1.634-4.753 0-1.877.511-3.353 1.533-4.4 1.019-1.056 2.285-1.587 3.797-1.587.838 0 2.12.253 2.776.495 1.414.54 1.02.77 1.02 1.503v-1.726h3.062V80.27h-3.324Z"/><path fill="#C80A1E" fill-rule="evenodd" d="M81.606 33.304c1.366.15 1.366-2.67 0-2.515-2.018.255-4.06.507-6.086.743-1.15.129-1.15.891 0 1.031 2.026.252 4.068.486 6.086.74ZM59.473 1.648c-.754 1.891-1.54 3.804-2.286 5.685-.437 1.067-1.157.878-1.005-.252.292-2.045.585-4.069.875-6.094.198-1.341 2.927-.617 2.416.66ZM73.337 12.884l-1.553 1.536L70 16.192c-.627.621-.273 1.089.482.621l1.303-.776 2.726-1.639c.914-.543-.43-2.255-1.173-1.514ZM47.785 48.793v-.307h.116a15.674 15.674 0 0 0 3.422-.435c-.931.337-1.942.567-2.992.684-.196.026-.37.043-.546.058ZM47.785 50.788v.81c-.524-.08-1.028-.156-1.535-.254.075-.017.154-.033.252-.083a9.966 9.966 0 0 0 1.283-.473Z" clip-rule="evenodd"/><path fill="#C80A1E" fill-rule="evenodd" d="M71.784 22.435c-2.45-5.386-6.841-9.901-12.56-12.278-1.813-.742-2.336 2.064-.856 2.684 9.495 4.053 14.774 14.915 12.097 24.917-2.669 9.95-12.5 16.644-22.68 15.511-.078 0-.155-.014-.232-.014-1.592-.2-2.534 2.493-.584 2.741.27.045.545.061.816.096 10.03.975 19.78-4.701 23.999-13.813a22.908 22.908 0 0 0 1.385-3.796c1.476-5.45.851-11.118-1.385-16.048ZM38.956 17.024a11.105 11.105 0 0 1 1.842-1.805c-.639.347-1.24.735-1.842 1.149v.656ZM40.51 8.29c-.444-1.502-.876-3.019-1.304-4.52a.468.468 0 0 0-.25-.347c-.602-.39-1.945.309-1.516 1.089l1.517 2.646.812 1.446c.451.756.974.542.742-.314Z" clip-rule="evenodd"/><path fill="#C80A1E" fill-rule="evenodd" d="M48.35 49.945c-.197.036-.374.096-.565.133-3.306.778-5.971-.037-6.013-1.928-.014-.173 0-.343.042-.536 1.362.907 3.52 1.376 5.971 1.179v-.306c-4.319 0-7.352-1.849-6.768-4.148.06-.215.136-.406.235-.601 1.263 1.491 3.615 2.741 6.533 3.269.159.038.312.053.464.076 2.295.368 4.515.21 6.324-.311-1.945 1.15-4.045 2.548-6.223 3.173Zm18.28-27.796c.858 2.024 1.07 4.282.41 6.713-.657 2.51-2.338 4.556-4.628 5.977 1.691-1.321 2.938-3.095 3.505-5.195 2.702-10.085-9.443-16.508-18.132-14.408-3.638.878-6.67 3.232-7.802 7.436-.794 2.943-.09 6 1.68 8.569 1.26 1.828.774 3.168.206 5.27-1.2 4.54 2.18 7.471 5.916 8.526 3.438.972 7.182.335 7.84-2.16 1.823-6.813 1.203-2.62.119 1.427-.603 2.21-4.28 2.917-7.959 2.138-4.632-.997-9.234-4.303-7.734-9.852.747-2.818 1.12-4.069-.59-6.25-.176-.21-.35-.444-.505-.656-1.902-2.709-2.663-5.864-1.867-8.857.39-1.482 1.029-2.752 1.867-3.803v-.656c-3.619 2.532-6.418 6.304-7.643 10.899-2.179 8.098 1.146 16.393 7.643 20.963a19.564 19.564 0 0 0 3.869 2.088c.024-.044.024-.079.042-.123.775.485 2.116.686 3.672.45.43-.079.839-.157 1.246-.273a8.805 8.805 0 0 0 1.757-.734c-.457.403-1.08.81-1.757 1.15v.81c9.416 1.133 18.518-4.851 21.045-14.26 1.44-5.36.486-10.79-2.2-15.189ZM28.123 18.525l-.682-.504-4.241-3.174c-.759-.585-1.694.447-1.728 1.305v.136c.019.315.157.584.482.722l5.487 2.355.155.057c1.054.45 1.443-.192.527-.897Z" clip-rule="evenodd"/><path fill="#C80A1E" fill-rule="evenodd" d="M53.196 8.538a23.116 23.116 0 0 0-5.411-.055 23.666 23.666 0 0 0-8.829 2.705c-5.271 2.804-9.509 7.513-11.515 13.39a16.7 16.7 0 0 0-.465 1.501c-1.227 4.61-.976 9.36.465 13.689 1.928 5.736 5.988 10.764 11.515 13.68.64.354 1.301.664 1.982.941 1.813.73 2.335-2.048.855-2.674a19.7 19.7 0 0 1-2.837-1.496c-7.68-4.811-11.705-14.325-9.274-23.402 1.43-5.334 4.858-9.696 9.274-12.434 2.66-1.656 5.679-2.746 8.829-3.096a19.034 19.034 0 0 1 4.818.02c1.58.173 2.538-2.515.593-2.77Z" clip-rule="evenodd"/></svg>